<svg xmlns="http://www.w3.org/2000/svg" xmlns:xlink="http://www.w3.org/1999/xlink" width="752.84" height="397.275" viewBox="0 0 752.84 397.275">
  <defs>
    <clipPath id="clip-path">
      <rect id="SVGID" width="200.468" height="132.364" rx="14.222" fill="none"/>
    </clipPath>
    <radialGradient id="radial-gradient" cx="0.109" cy="0.359" r="0.627" gradientTransform="translate(0.159) scale(0.683 1)" gradientUnits="objectBoundingBox">
      <stop offset="0" stop-color="#fff"/>
      <stop offset="1" stop-color="#fff" stop-opacity="0"/>
    </radialGradient>
    <linearGradient id="linear-gradient" x1="0.5" x2="0.5" y2="1" gradientUnits="objectBoundingBox">
      <stop offset="0" stop-color="#ffd71d"/>
      <stop offset="1" stop-color="#feb200"/>
    </linearGradient>
    <linearGradient id="linear-gradient-2" x1="-0.692" y1="0.5" x2="0.308" y2="0.5" gradientUnits="objectBoundingBox">
      <stop offset="0" stop-color="#343a44"/>
      <stop offset="0.301" stop-color="#232c3d"/>
      <stop offset="0.639" stop-color="#172339"/>
      <stop offset="1" stop-color="#142138"/>
    </linearGradient>
    <linearGradient id="linear-gradient-3" x1="0.15" y1="0.5" x2="1.15" y2="0.5" xlink:href="#linear-gradient-2"/>
  </defs>
  <g id="Group_49" data-name="Group 49" transform="translate(-70.247 -58.644)">
    <g id="Group_48" data-name="Group 48" transform="translate(70.247 58.644)">
      <path id="Path_12" data-name="Path 12" d="M146.4,304.308c-38,23.9-57.911,77.755-27.145,149.528h605.3c10.272-26,16.422-60.164,18.352-80.5,4.212-44.361-10.871-90.439-37.451-114.765-67.267-61.563-123.194,23.95-158.555-12.2-20.411-20.867-18.477-79.436-34.449-106.623-35.254-60.013-101.633-89.6-167.074-78.98-43.549,7.068-82.829,30.117-106.79,69.107-32.819,53.4-8.93,91.665-23.416,128.576C199.017,299.6,171.789,288.342,146.4,304.308Z" transform="translate(-62.27 -58.644)" fill="rgba(255,255,255,0.14)"/>
      <g id="Group_20" data-name="Group 20" transform="translate(131.643 124.31)">
        <g id="Group_14" data-name="Group 14">
          <path id="Path_13" data-name="Path 13" d="M182,186.49c-.085.345,5.53-3.142,5.53-3.142l2.371-3.678s2.321-1.5,3.982-2.306,4.72-5.779,4.72-5.779l-1.209-1.518a20.769,20.769,0,0,1-2.317,2.474,2.969,2.969,0,0,1-1.742.057,31.237,31.237,0,0,1,1.339-3.751,34.954,34.954,0,0,1,3.764-5.773l-1.065-1.115a30.546,30.546,0,0,0-2.317,2.426c-.614.812-1.792,2.516-1.792,2.516a33.592,33.592,0,0,1,1.982-4.12c.758-1.12,1.581-2.637,1.581-2.637l-1.231-.855a27.786,27.786,0,0,0-2.181,3.108c-.742,1.33-2.113,3.538-2.113,3.538a43.79,43.79,0,0,1,1.56-4.363,15.564,15.564,0,0,0,.709-1.476l-1.46-.5a11.725,11.725,0,0,0-1.726,3.083,16.344,16.344,0,0,1-1.112,2.548,17.531,17.531,0,0,1,.914-3.7,3.212,3.212,0,0,0,.5-1.183l-1.183-.224s-2.274,4.186-3.466,6.781-2.127,6.1-2.8,8a73.36,73.36,0,0,0-1.549,8.362Z" transform="translate(-175.683 -159.287)" fill="#f5c5b3"/>
          <path id="Path_14" data-name="Path 14" d="M218.164,207.487l-28.773-4.955a95.918,95.918,0,0,1-.312-14.745c.508-8.613,1.562-11.01,1.562-11.01l-7.721-1.068s-1.524,6.781-2.617,11.655c-2.425,10.808-4.641,20.931-2.79,23.188,2.688,3.274,26.631,9.939,34.824,16.084C217.268,230.332,216.98,218.493,218.164,207.487Z" transform="translate(-176.826 -155.425)" fill="#42b2fc"/>
        </g>
        <path id="Path_15" data-name="Path 15" d="M243.6,269.344l-1.455,9.952,3.007,6.82,2.2-2.969.506-5.56,3.247.488,1.594-2-.139-4.167-.534-11.34Z" transform="translate(-161.466 -135.469)" fill="#fec4ad"/>
        <path id="Path_16" data-name="Path 16" d="M243.5,206.345c-2.217-.819-9.451-.284-9.451-.284s-.683,7.725,2.255,13.691,10.223,27.7,11.146,29.74-1.932,32.711-1.932,32.711l10.569-2.166s5.094-23.653,5.054-29.666-5.664-28.517-9.663-35.691S248.883,208.332,243.5,206.345Z" transform="translate(-163.385 -148.328)" fill="#42b2fc"/>
        <path id="Path_17" data-name="Path 17" d="M230.908,188.346s-2.326,10.2-.506,12.57c1.066,1.391,5.585,6.344,5.585,6.344s-14.973,7.905-19.374,7.905-2.859-8.829-2.859-8.829,4.8-3.794,5.515-5.711,1.114-7.467,1.114-7.467Z" transform="translate(-168.204 -152.453)" fill="#fec4ad"/>
        <g id="Group_18" data-name="Group 18" transform="translate(43.114 14.763)">
          <g id="Group_15" data-name="Group 15" transform="translate(21.046 17.888)">
            <path id="Path_18" data-name="Path 18" d="M229.066,189.342s-.17-3.714,2.941-3.619c1.986.061,2.141,1.881.593,4.23-.652.988-.718,3.225-1.527,3.944-.983.874-1.806-.474-2.1-1.089C228.473,191.792,229.066,189.342,229.066,189.342Z" transform="translate(-228.771 -185.722)" fill="#f5c5b3"/>
          </g>
          <g id="Group_16" data-name="Group 16" transform="translate(0 17.888)">
            <path id="Path_19" data-name="Path 19" d="M216.309,189.342s.172-3.714-2.941-3.619c-1.986.061-2.141,1.881-.593,4.23.652.988.718,3.225,1.527,3.944.983.874,1.806-.474,2.1-1.089C216.9,191.792,216.309,189.342,216.309,189.342Z" transform="translate(-211.732 -185.722)" fill="#f5c5b3"/>
          </g>
          <path id="Path_20" data-name="Path 20" d="M235.94,183.053a35.3,35.3,0,0,1-.629,3.778c-.074.431-.154.924-.236,1.5-.644,4.458-1.459,10.52-1.811,11.424-.582,1.5-3.766,3.929-5.278,4.817s-5.316.708-6.828-.182-4.933-3.136-5.515-4.636c-.357-.921-1.2-7.158-1.849-11.691-.074-.516-.146-.962-.215-1.356a34.143,34.143,0,0,1-.614-3.651c-.231-3.766,4.008-9.244,11.488-9.244C233.3,173.809,236.173,179.287,235.94,183.053Z" transform="translate(-211.444 -170.635)" fill="#f5c5b3"/>
          <path id="Path_21" data-name="Path 21" d="M216,178.05a17.89,17.89,0,0,1,13.7.5l2.64-1.681a21.65,21.65,0,0,0-9.377-1.973C217.431,174.939,216,178.05,216,178.05Z" transform="translate(-210.729 -170.379)" fill="#e8d4e5" style="mix-blend-mode: multiply;isolation: isolate"/>
          <g id="Group_17" data-name="Group 17" transform="translate(2.135 15.158)">
            <path id="Path_22" data-name="Path 22" d="M235.192,184.55c-.073.431-.154.924-.236,1.5-.644,4.458-1.459,10.52-1.811,11.424-.581,1.5-3.766,3.929-5.278,4.817s-5.316.708-6.828-.182-4.934-3.136-5.515-4.636c-.357-.921-1.2-7.158-1.85-11.691-.074-.516-.145-.962-.214-1.356l.61-.912s1.1,6.464,2.789,8.471,2.007,2.1,2.007,2.1l3.451-.852c.094-.025.184-.047.275-.069a8.107,8.107,0,0,1,4.025.032c.073.017.145.037.219.059l.251.074,2.614.756s.609-.094,2.3-2.1,2.5-8.471,2.5-8.471Z" transform="translate(-213.461 -183.511)" fill="#7b2b1a"/>
          </g>
          <path id="Path_23" data-name="Path 23" d="M232.656,180.222c-.025.124-.632,4.527-.881,5.224-.383,1.067-.676,1.838-.676,1.838l-.453-.984a14.653,14.653,0,0,1-1.338-5.816l-.08-3.776,1.256-1.11C232.959,175.965,233.225,177.4,232.656,180.222Z" transform="translate(-207.618 -170.214)" fill="#7b2b1a"/>
          <path id="Path_24" data-name="Path 24" d="M217.028,176.855l0,.017-.6,3.885a14.676,14.676,0,0,1-1.806,5.112l-.052.089-.686,1.182s-.2-.687-.482-1.663c-.208-.719-.719-4.4-.842-4.921-.04-.163-.074-.32-.1-.473-.527-2.763-.012-3.92,2.438-4.288Z" transform="translate(-211.607 -170.168)" fill="#7b2b1a"/>
          <path id="Path_25" data-name="Path 25" d="M234.23,176.621l-1.256,1.11-2.393.86a18.99,18.99,0,0,0-8.429-1.514c-4.795.369-5.45,1.749-5.519,1.834l0,0-.5-.107-2.355-.515-.48-.106a14.925,14.925,0,0,1,.939-2.664c1.887-2.843,7.018-4.683,11.68-4.209.158.015.314.032.468.054a11.235,11.235,0,0,1,6.352,2.626Z" transform="translate(-211.363 -171.239)" fill="#7b2b1a"/>
        </g>
        <path id="Path_26" data-name="Path 26" d="M243.111,371.488v9.339H225.163s.674-3.381,9.186-4.941l1.252-4.4Z" transform="translate(-165.459 -109.385)" fill="#133a50"/>
        <path id="Path_27" data-name="Path 27" d="M221.01,371.488v9.339H203.062s.674-3.381,9.186-4.941l1.251-4.4Z" transform="translate(-170.657 -109.385)" fill="#133a50"/>
        <path id="Path_28" data-name="Path 28" d="M243.545,258.934s2.512,30.082,2.6,54.613,1.549,86.548,1.549,86.548h-9.906s-10.214-59.563-13.928-75.334-13.367-65.53-13.367-65.53Z" transform="translate(-168.909 -135.854)" fill="#133a50"/>
        <path id="Path_29" data-name="Path 29" d="M224.311,291.215s-1.856,37.377-2.228,44.736,0,64.084,0,64.084-9.282.25-9.282,0-8.752-60.407-9.886-78.54-.469-39.631-1.975-42.14S205,259.032,205,259.032l13.14,3.5Z" transform="translate(-171.217 -135.831)" fill="#133a50"/>
        <path id="Path_30" data-name="Path 30" d="M219.6,200.282s-4.118,9.335,2.078,10.367c9.847,1.639,12.846-10.96,12.846-10.96l10.857,5.59s-.2,67.587,4.069,88.219c2.477,11.98-38.753,6.27-44.8-4.364-5.235-9.2,9.887-85.681,9.887-85.681Z" transform="translate(-170.543 -149.786)" fill="#fff"/>
        <path id="Path_31" data-name="Path 31" d="M232.77,200.635c-.3.414-14.859,43.038-9.906,83.151,1.155,9.355,18.211,1.616,22.28,1.616,0,0,1.934-29.939,2.409-41.073s-4.833-14.794-4.359-20.242,6.4-15.16,6.4-15.16Z" transform="translate(-166.241 -149.563)" fill="#42b2fc"/>
        <g id="Group_19" data-name="Group 19" transform="translate(28.867 51.478)">
          <path id="Path_32" data-name="Path 32" d="M213.516,287.957c1.665-27.888,2.347-86.261,2.347-86.261l-9.839-.731s-4.922,48.959-4.994,54.526c-.03,2.212.662,29.1-.833,34.131C203.516,290.119,213.316,291.316,213.516,287.957Z" transform="translate(-200.197 -200.964)" fill="#42b2fc"/>
        </g>
      </g>
      <path id="Path_33" data-name="Path 33" d="M303.477,188.343c-7.725,2.649-15.666,5.421-21.8,10.813s-10.086,14.113-7.5,21.86,13.351,12.257,19.575,6.971c2.237-1.9,3.618-5.159,2.417-7.836-2.375-5.293-10.647-2.811-14.526,1.5-4.6,5.117-7.525,12.116-6.386,18.9s7.065,12.884,13.946,12.878,16.686-10.387,10.8-13.944c-7.479-4.517-17.092,6.24-20.771,14.166s-1.381,18.657,6.138,23.11,25.158-1.178,20.537-8.594c-4.884-7.838-19.314,3.463-21.232,12.5s5.154,18.933,14.323,20.047,25.05-9.327,18.7-16.036c-9.171-9.695-24.459,14.991-20.045,27.586s22.649,17.606,32.88,9.038c1.916-1.606,3.645-3.9,3.289-6.375-.592-4.122-6.234-5.283-10.184-3.962-10.3,3.442-14.959,17.863-8.612,26.68s21.5,8.978,28.034.3c1.273-1.691,2.263-3.815,1.8-5.882-.646-2.884-4.064-4.513-6.969-3.967s-5.252,2.735-6.907,5.185c-5.878,8.708-3.895,21.791,4.3,28.363s21.4,5.669,28.621-1.96c1.882-1.989,3.44-4.648,2.941-7.341-.576-3.114-3.9-5.2-7.064-5.125s-6.068,1.89-8.263,4.17c-9.225,9.58-5.283,28.121,7.043,33.118s36.772-8.765,28.118-18.863c-5.779-6.745-17.182,7.843-15.724,16.606s11.536,14.733,20.127,12.475,19.9-14.579,13.267-20.48c-4.7-4.177-12.295,4.654-13.745,10.769a14.435,14.435,0,0,0,7.444,15.8c6.072,2.987,13.507,1.188,19.346-2.229s10.684-8.3,16.308-12.061a51.02,51.02,0,0,1,38.968-7.3" transform="translate(-22.479 -28.144)" fill="none" stroke="#fff" stroke-miterlimit="10" stroke-width="2"/>
      <g id="Group_25" data-name="Group 25" transform="translate(482.612 199.967)">
        <path id="Path_34" data-name="Path 34" d="M636.165,221.016c-12.511-7.985-124.035,86.032-119.948,160.309,0,0,21.71-29.319,40.634-43.609s20.77-29.247,20.733-44.061,28.264-8.7,31.452-25.127C614.677,239.453,647.424,228.2,636.165,221.016Z" transform="translate(-448.009 -220.539)" fill="#4fae86"/>
        <g id="Group_22" data-name="Group 22" transform="translate(64.939 18.574)">
          <g id="Group_21" data-name="Group 21" transform="translate(2.188)">
            <path id="Path_35" data-name="Path 35" d="M643.677,286.682c-18.017,10.914-12.714,25.46-23.337,33.958-7.725,6.181-20.617,2.946-27.044,11.361-7.243,9.485.993,22.537,1.6,33.967.841,15.788-13.24,27.626-27.55,32.422-16.615,5.568-38.121,3.826-47.217-12.7-10.736-19.5-2.7-48.9,16.136-58.061,4.575-2.224,10.385-2.828,14.123-7.332,6.309-7.6,2.259-18.537,5.182-28.206,2.847-9.423,12.165-16.052,20.749-18.989s17.327-3.533,25.715-6.939c11.423-4.639,21.426-14.834,30.937-21.71,8.484-6.134,38.27-17.644,43.115,2.47C680.5,265.252,658.811,277.516,643.677,286.682Z" transform="translate(-515.32 -235.577)" fill="#319188"/>
          </g>
          <path id="Path_36" data-name="Path 36" d="M645.951,253.219s-73.644,37.009-132.4,156.427" transform="translate(-513.549 -231.428)" fill="none" stroke="#194459" stroke-miterlimit="10" stroke-width="1"/>
        </g>
        <path id="Path_37" data-name="Path 37" d="M689.758,298.379s-94.693-1.06-173.376,89.2" transform="translate(-447.944 -202.234)" fill="none" stroke="#fff" stroke-miterlimit="10" stroke-width="1"/>
        <g id="Group_24" data-name="Group 24" transform="translate(72.068 114.286)">
          <g id="Group_23" data-name="Group 23" transform="translate(14.608)">
            <path id="Path_38" data-name="Path 38" d="M639.328,337.149c-9.024,3.61-11.472,18.825-21.19,20.757-7.069,1.4-14.613-4.855-21.519-1.607-7.785,3.66-6.414,14.635-9.6,22.092-4.395,10.3-17.458,13.225-28.463,11.6-12.778-1.884-26.508-10-27.361-23.464-1.007-15.885,13.555-31.934,28.934-31.607,3.734.079,7.782,1.592,11.675-.049,6.575-2.769,7.318-11.035,12.292-16.221,4.848-5.056,13.114-6.227,19.734-5.29s12.611,3.408,19.249,3.981c9.039.781,18.879-2.431,27.35-3.694,7.558-1.128,38.428-.532,27.848,15.633C670.952,340.474,651.355,332.336,639.328,337.149Z" transform="translate(-531.148 -313.066)" fill="#4fae86"/>
          </g>
          <path id="Path_39" data-name="Path 39" d="M661.581,320.494s-65.777,5.6-142.26,62.266" transform="translate(-519.321 -311.32)" fill="none" stroke="#194459" stroke-miterlimit="10" stroke-width="1"/>
        </g>
        <path id="Path_40" data-name="Path 40" d="M460.974,387.389s14.968-26.205,17.408-28.906c15.4-17.043,35.821-17.231,56.614-12.927,6.016,1.246,21.944,9.613,27.723,8.457,4.5-.9,9.9-18.01,24.313-17.109s15.275,18.01,15.275,18.01,9.036-19.88,23.445-18.044,14.408,15.254,3.6,25.2c0,0,22.963-6.888,45.249,3.782s11.641,24.665,11.641,24.665Z" transform="translate(-460.974 -193.211)" fill="#319188"/>
      </g>
      <g id="Group_30" data-name="Group 30" transform="translate(28.414 199.967)">
        <path id="Path_41" data-name="Path 41" d="M137.138,221.016c12.511-7.985,124.035,86.032,119.948,160.309,0,0-21.712-29.319-40.634-43.609s-20.771-29.247-20.733-44.061-28.264-8.7-31.452-25.127C158.626,239.453,125.879,228.2,137.138,221.016Z" transform="translate(-83.48 -220.539)" fill="#4fae86"/>
        <g id="Group_27" data-name="Group 27" transform="translate(13.339 18.574)">
          <g id="Group_26" data-name="Group 26">
            <path id="Path_42" data-name="Path 42" d="M137.042,286.682c18.017,10.914,12.714,25.46,23.337,33.958C168.1,326.821,181,323.586,187.423,332c7.243,9.485-.993,22.537-1.6,33.967-.841,15.788,13.24,27.626,27.55,32.422,16.615,5.568,38.121,3.826,47.217-12.7,10.736-19.5,2.7-48.9-16.136-58.061-4.575-2.224-10.385-2.828-14.123-7.332-6.309-7.6-2.259-18.537-5.182-28.206-2.847-9.423-12.165-16.052-20.749-18.989s-17.327-3.533-25.715-6.939c-11.423-4.639-21.426-14.834-30.937-21.71-8.484-6.134-38.27-17.644-43.115,2.47C100.217,265.252,121.908,277.516,137.042,286.682Z" transform="translate(-104.05 -235.577)" fill="#319188"/>
          </g>
          <path id="Path_43" data-name="Path 43" d="M129.257,253.219s73.644,37.009,132.4,156.427" transform="translate(-98.123 -231.428)" fill="none" stroke="#194459" stroke-miterlimit="10" stroke-width="1"/>
        </g>
        <path id="Path_44" data-name="Path 44" d="M93.251,298.379s94.692-1.06,173.376,89.2" transform="translate(-93.251 -202.234)" fill="none" stroke="#fff" stroke-miterlimit="10" stroke-width="1"/>
        <g id="Group_29" data-name="Group 29" transform="translate(5.821 114.286)">
          <g id="Group_28" data-name="Group 28">
            <path id="Path_45" data-name="Path 45" d="M139.1,337.149c9.024,3.61,11.472,18.825,21.19,20.757,7.069,1.4,14.613-4.855,21.519-1.607,7.785,3.66,6.414,14.635,9.6,22.092,4.4,10.3,17.459,13.225,28.464,11.6,12.778-1.884,26.508-10,27.361-23.464,1.007-15.885-13.555-31.934-28.934-31.607-3.734.079-7.782,1.592-11.675-.049-6.576-2.769-7.318-11.035-12.292-16.221-4.848-5.056-13.114-6.227-19.734-5.29s-12.611,3.408-19.249,3.981c-9.039.781-18.879-2.431-27.35-3.694-7.558-1.128-38.428-.532-27.848,15.633C107.476,340.474,127.073,332.336,139.1,337.149Z" transform="translate(-97.964 -313.066)" fill="#4fae86"/>
          </g>
          <path id="Path_46" data-name="Path 46" d="M115.5,320.494s65.777,5.6,142.26,62.266" transform="translate(-93.839 -311.32)" fill="none" stroke="#194459" stroke-miterlimit="10" stroke-width="1"/>
        </g>
        <path id="Path_47" data-name="Path 47" d="M332.4,387.389s-14.969-26.205-17.41-28.906c-15.4-17.043-35.82-17.231-56.612-12.927-6.016,1.246-21.944,9.613-27.723,8.457-4.5-.9-9.9-18.01-24.313-17.109s-15.275,18.01-15.275,18.01-9.038-19.88-23.445-18.044-14.408,15.254-3.6,25.2c0,0-22.963-6.888-45.249,3.782s-11.641,24.665-11.641,24.665Z" transform="translate(-90.585 -193.211)" fill="#319188"/>
      </g>
      <g id="Group_37" data-name="Group 37" transform="translate(385.924 233.553)">
        <g id="Group_31" data-name="Group 31" transform="translate(15.868 139.951)">
          <path id="Path_48" data-name="Path 48" d="M425.286,383.96H401.992a4.942,4.942,0,0,1-4.925-4.533l-1.525-18.39h36.194l-1.525,18.39A4.942,4.942,0,0,1,425.286,383.96Z" transform="translate(-395.542 -361.037)" fill="#21295b"/>
          <path id="Path_49" data-name="Path 49" d="M536.638,383.96H513.345a4.941,4.941,0,0,1-4.925-4.533l-1.527-18.39h36.194l-1.526,18.39A4.942,4.942,0,0,1,536.638,383.96Z" transform="translate(-369.356 -361.037)" fill="#21295b"/>
        </g>
        <path id="Path_50" data-name="Path 50" d="M566.4,360.338H397.5l11.943-87.077a13.721,13.721,0,0,1,13.593-11.855H540.866a13.718,13.718,0,0,1,13.592,11.855Z" transform="translate(-379.214 -244.515)" fill="#ff3a46"/>
        <path id="Path_51" data-name="Path 51" d="M539.267,346.663H415.951l8.76-87.478a12.721,12.721,0,0,1,12.658-11.454h80.481a12.721,12.721,0,0,1,12.657,11.454Z" transform="translate(-374.874 -247.731)" fill="#ff3a46"/>
        <path id="Path_52" data-name="Path 52" d="M400.207,325.5,397.5,345.265H566.4L563.691,325.5Z" transform="translate(-379.214 -229.443)" fill="#cfcfcf" style="mix-blend-mode: multiply;isolation: isolate"/>
        <path id="Path_53" data-name="Path 53" d="M588.164,377.35H382.695l3.8-44.64H584.36Z" transform="translate(-382.695 -227.747)" fill="#ff3a46"/>
        <g id="Group_36" data-name="Group 36" transform="translate(50.721 2.421)">
          <circle id="Ellipse_16" data-name="Ellipse 16" cx="37.592" cy="37.592" r="37.592" transform="translate(0 41.02) rotate(-33.065)" fill="#cfcfcf" style="mix-blend-mode: multiply;isolation: isolate"/>
          <circle id="Ellipse_17" data-name="Ellipse 17" cx="32.504" cy="32.504" r="32.504" transform="translate(18.759 20.279) rotate(-1.34)" fill="#fff"/>
          <g id="Group_35" data-name="Group 35" transform="translate(23.743 23.748)">
            <g id="Group_32" data-name="Group 32" transform="translate(33.124 46.562)">
              <path id="Path_54" data-name="Path 54" d="M474.031,315.051a4.246,4.246,0,0,1-2.99-1.23,3.427,3.427,0,0,1-.519-.651,4.163,4.163,0,0,1-.4-.724,5.905,5.905,0,0,1-.241-.783,4.874,4.874,0,0,1-.084-.832,4.233,4.233,0,0,1,5.051-4.135,4.53,4.53,0,0,1,.784.242,4.719,4.719,0,0,1,.736.385,4.407,4.407,0,0,1,.637.531,4.243,4.243,0,0,1,1.243,2.977,4.882,4.882,0,0,1-.085.832,5.742,5.742,0,0,1-.24.783,5.258,5.258,0,0,1-.387.724,3.99,3.99,0,0,1-.531.651,4.407,4.407,0,0,1-.637.519,3.315,3.315,0,0,1-.736.385,3.738,3.738,0,0,1-.784.242A3.927,3.927,0,0,1,474.031,315.051Z" transform="translate(-469.799 -306.616)" fill="#b3b3b3"/>
            </g>
            <g id="Group_33" data-name="Group 33">
              <path id="Path_55" data-name="Path 55" d="M467.256,325.4h0a4.22,4.22,0,0,1-3.581-4.774h0a4.22,4.22,0,0,1,4.774-3.581h0a4.234,4.234,0,0,1,3.582,4.775h0a4.227,4.227,0,0,1-4.185,3.628h0A3.27,3.27,0,0,1,467.256,325.4Zm-13.563-5.762h0a4.233,4.233,0,0,1-.724-5.932h0a4.218,4.218,0,0,1,5.92-.723h0a4.218,4.218,0,0,1,.724,5.919h0a4.2,4.2,0,0,1-3.329,1.628h0A4.2,4.2,0,0,1,453.692,319.636Zm-8.861-11.792a4.205,4.205,0,0,1,2.327-5.485h0a4.223,4.223,0,0,1,5.5,2.327h0a4.24,4.24,0,0,1-2.339,5.5h0a4.27,4.27,0,0,1-1.58.3h0A4.189,4.189,0,0,1,444.831,307.844Zm1.785-9.862a4.227,4.227,0,0,1-3.593-4.774h0a4.223,4.223,0,0,1,4.774-3.581h0a4.223,4.223,0,0,1,3.593,4.762h0a4.226,4.226,0,0,1-4.183,3.629h0A4.738,4.738,0,0,1,446.616,297.983Zm2.905-12.418a4.219,4.219,0,0,1-.736-5.919h0a4.211,4.211,0,0,1,5.92-.736h0a4.209,4.209,0,0,1,.735,5.92h0a4.193,4.193,0,0,1-3.328,1.628h0A4.2,4.2,0,0,1,449.521,285.564Zm34.071-4.2a4.21,4.21,0,0,1-.736-5.919h0a4.221,4.221,0,0,1,5.92-.747h0a4.234,4.234,0,0,1,.736,5.931h0a4.234,4.234,0,0,1-3.329,1.628h0A4.245,4.245,0,0,1,483.592,281.368Zm-25.354-5.111a4.205,4.205,0,0,1,2.326-5.485h0a4.222,4.222,0,0,1,5.5,2.327h0a4.228,4.228,0,0,1-2.339,5.5h0a4.225,4.225,0,0,1-1.578.3h0A4.2,4.2,0,0,1,458.238,276.257Zm15.782,1.061a4.22,4.22,0,0,1-3.581-4.774h0a4.208,4.208,0,0,1,4.763-3.582h0a4.209,4.209,0,0,1,3.592,4.763h0a4.223,4.223,0,0,1-4.171,3.629h0A4.931,4.931,0,0,1,474.019,277.318Z" transform="translate(-442.981 -268.918)" fill="#b3b3b3"/>
            </g>
            <g id="Group_34" data-name="Group 34" transform="translate(46.567 14.974)">
              <path id="Path_56" data-name="Path 56" d="M484.9,289.477a4.6,4.6,0,0,1-.819-.084,4.345,4.345,0,0,1-.8-.241,5.062,5.062,0,0,1-.723-.387,4.6,4.6,0,0,1-.651-.53,4.235,4.235,0,0,1-1.23-2.978,3.965,3.965,0,0,1,.084-.833,3.674,3.674,0,0,1,.242-.783,4.168,4.168,0,0,1,.385-.735,4.346,4.346,0,0,1,.519-.64,4.889,4.889,0,0,1,1.373-.917,4.32,4.32,0,0,1,.8-.228,4.244,4.244,0,0,1,3.8,1.145,3.739,3.739,0,0,1,.53.64,4.253,4.253,0,0,1,.387.735,3.748,3.748,0,0,1,.242.783,3.963,3.963,0,0,1,.083.833,4.238,4.238,0,0,1-4.219,4.219Z" transform="translate(-480.682 -281.041)" fill="#b3b3b3"/>
            </g>
          </g>
        </g>
      </g>
      <g id="Group_38" data-name="Group 38" transform="translate(265.315 89.925)">
        <path id="Path_57" data-name="Path 57" d="M426.862,184.538a18.03,18.03,0,0,1,3.62-18.856s30.568,19.806,64.734,14.218c0,0,3.746,10.3-6.756,19.847C488.46,199.747,451.888,206.681,426.862,184.538Z" transform="translate(-251.988 -123.399)" fill="#d6313b"/>
        <path id="Path_58" data-name="Path 58" d="M512.249,148.744c-22-18.548-63.664-21.156-116.407-12.664-45.351,7.3-91.542,24.432-106.959,48.627-7.022,11.02-2.253,41.626-2.253,41.626,41.778,2.61,57.081-33.307,57.081-33.307s-2.794-10.191,6.566-14.695c32.752-15.761,83.53-21.145,102.42-16.491a13.994,13.994,0,0,1,10.846,11.892s25.8,29.3,64.651,13.708C528.193,187.44,522.237,157.168,512.249,148.744Z" transform="translate(-285.048 -131.449)" fill="#ff3a46"/>
        <path id="Path_59" data-name="Path 59" d="M352.087,197.785a18.029,18.029,0,0,0-9.356-16.766s-22.807,28.4-57,33.818c0,0-.324,10.958,12.644,16.722C298.375,231.558,335.275,226.664,352.087,197.785Z" transform="translate(-284.888 -119.792)" fill="#d6313b"/>
      </g>
      <g id="Group_40" data-name="Group 40" transform="translate(141.25 263.859)">
        <g id="Group_39" data-name="Group 39" clip-path="url(#clip-path)">
          <rect id="Rectangle_119" data-name="Rectangle 119" width="200.468" height="132.364" rx="14.222" fill="#ffd71d"/>
          <path id="Path_60" data-name="Path 60" d="M385.072,289.833A17.568,17.568,0,0,0,367.5,272.267H202.17A17.567,17.567,0,0,0,184.6,289.833l90.9,73.693a14.648,14.648,0,0,0,18.437.01Z" transform="translate(-184.604 -272.267)" fill="#ffd71d" style="mix-blend-mode: multiply;isolation: isolate"/>
          <path id="Path_61" data-name="Path 61" d="M196.3,390.97V293.74a17.566,17.566,0,0,1,17.566-17.566H378.424a17.4,17.4,0,0,0-10.92-3.907H202.17A17.566,17.566,0,0,0,184.6,289.833v97.231a17.566,17.566,0,0,0,17.566,17.566h.781A17.459,17.459,0,0,1,196.3,390.97Z" transform="translate(-184.604 -272.267)" opacity="0.7" fill="url(#radial-gradient)" style="mix-blend-mode: overlay;isolation: isolate"/>
          <path id="Path_62" data-name="Path 62" d="M273.759,350.716,184.6,272.267H385.072l-89.155,78.449A16.772,16.772,0,0,1,273.759,350.716Z" transform="translate(-184.604 -272.267)" fill="url(#linear-gradient)"/>
          <path id="Path_63" data-name="Path 63" d="M273.759,350.716,184.6,272.267H385.072l-89.155,78.449A16.772,16.772,0,0,1,273.759,350.716Z" transform="translate(-184.604 -272.267)" fill="#fd0" opacity="0.7" style="mix-blend-mode: overlay;isolation: isolate"/>
        </g>
      </g>
      <g id="Group_43" data-name="Group 43" transform="translate(342.29 112.098)">
        <g id="Group_41" data-name="Group 41" transform="translate(42.172)">
          <path id="Path_64" data-name="Path 64" d="M397.369,221.089s5.705-16.465,6.105-18.277c2.364-10.7,3.006-33.894,2.858-38.827s-.608-9.262-.7-9.927-3.158-3.959-3.169-3.912a6.689,6.689,0,0,1-.951.1l-.036.619-1.323-1.139-1.1-.062-.117.516-1.572-.755-1.516-.027s.978,3.131,1.535,5.035-.025,2.061-.025,2.061a4.15,4.15,0,0,1-1.7.315,11.825,11.825,0,0,0-2.153-.093s4.607,5.993,4.818,6.549a10.847,10.847,0,0,1,1.854,8.67c-1.759,9.647-6.562,23.972-6.562,23.972.143-.336-6.2,17.77-6.2,17.77Z" transform="translate(-380.122 -149.4)" fill="#fec4ad"/>
          <path id="Path_65" data-name="Path 65" d="M395.691,231.945c1.766-13.857,8.857-30.039,8.857-30.039s-10.836-2.146-13.636-6c0,0-3.734,9.12-5.883,13.656-2.376,5.021-5.71,10.487-1.521,13.468C387.552,225.909,395.076,236.772,395.691,231.945Z" transform="translate(-381.51 -138.463)" fill="#42b2fc"/>
        </g>
        <path id="Path_66" data-name="Path 66" d="M359.364,372.337v8.908h17.121s-.644-3.224-8.762-4.712l-1.194-4.2Z" transform="translate(-344.546 -96.973)" fill="#133a50"/>
        <path id="Path_67" data-name="Path 67" d="M380.446,372.337v8.908h17.122s-.644-3.224-8.763-4.712l-1.193-4.2Z" transform="translate(-339.589 -96.973)" fill="#133a50"/>
        <path id="Path_68" data-name="Path 68" d="M362.446,264.971s-2.4,24.893-2.48,48.294-1.477,86.36-1.477,86.36h9.45s9.743-60.619,13.285-75.662,12.751-58.71,12.751-58.71Z" transform="translate(-344.752 -122.222)" fill="#133a50"/>
        <path id="Path_69" data-name="Path 69" d="M375.025,198.129s-.611,4.763-1.113,7.187a19.4,19.4,0,0,1-1.289,4.44c-.819,1.642-5.846,6.639-5.846,6.639s15.668,8.272,20.274,8.272,2.992-9.239,2.992-9.239-5.023-3.97-5.771-5.976-1.166-7.815-1.166-7.815Z" transform="translate(-342.803 -137.941)" fill="#fec4ad"/>
        <path id="Path_70" data-name="Path 70" d="M378.33,292.051s1.77,39.455,2.124,46.475,0,61.129,0,61.129,8.855.24,8.855,0,8.348-61.423,9.43-78.721.448-37.806,1.885-40.2-3.877-15.587-3.877-15.587l-12.533-.458Z" transform="translate(-340.086 -122.287)" fill="#133a50"/>
        <path id="Path_71" data-name="Path 71" d="M372.442,209.656s-13.227-5.309-15.416-.951c-1.653,3.293-.231,24.459.5,30.374.64,5.144,4.2,48.427,4.2,48.427s4.946,7.66,28.739,4.611c9.176-1.177,13.687-5.648,13.687-5.648s-2.573-51.646-3.281-56.827a111.8,111.8,0,0,0-3.157-13.268l-7.084-4.664s2.258,4.986-4.133,6.407C373.621,220.978,372.442,209.656,372.442,209.656Z" transform="translate(-345.277 -135.858)" fill="#42b2fc"/>
        <path id="Path_72" data-name="Path 72" d="M386.894,183.55c1.5.6,4.122,1.954,4.414,3.205a49.718,49.718,0,0,1,1.495,7.08c.138,2.2.453,6.356.451,8.948s-1.569,7.833-2.159,8.388-4.942,1.456-6.414,1.035-10.106-4.886-10.647-10.354c0,0-1.532.805-4.345-3.757-.735-1.189,1.8-10.03,2.138-11.6.826-3.829,10.269-.813,12.387-1.417A4.6,4.6,0,0,0,386.894,183.55Z" transform="translate(-342.15 -141.369)" fill="#fec4ad"/>
        <path id="Path_73" data-name="Path 73" d="M392.169,187.582s-6.616,4.141-9.2,4.355-6.371,3.76-6.3,4.86a2.39,2.39,0,0,1-1.088,1.855s-1.607-2.559-2.922-2.292c-2.607.527-1.076,3.743.34,4.449a21.862,21.862,0,0,0,2.79,1.143,13.493,13.493,0,0,1,.124,2.757,12.652,12.652,0,0,1-1.1,3.23s-3.053-6.429-5.792-8.828c-6.508-5.7-1.8-16.3,4.616-18.294,2.589-.8,9.7-1.338,13.161.214A9.429,9.429,0,0,1,392.169,187.582Z" transform="translate(-343.01 -142.195)" fill="#133a50"/>
        <path id="Path_74" data-name="Path 74" d="M376.83,194.266c.1.259.773.306.9.362.271.119.153.159,1.344,1.982.879,1.344,2.352,1.779,5.1.858,2.1-.7,1.808-2.509,1.957-3.37s.331-1.005.666-1.063.518.021.95.779.634,2.715,2.829,2.385c1.513-.227,1.912-.645,2.117-1.842a12.461,12.461,0,0,0,.173-2.9c-.059-.793-.077-1.276-.479-1.318a7.366,7.366,0,0,0-1.8.2,7.276,7.276,0,0,0-2.962.771c-.71.514-.632.829-1.005.9s-.447-.254-1.29-.5-4.333.371-5.642.6-3.108.721-3.072,1.217A3.707,3.707,0,0,0,376.83,194.266Zm11.315-1.95c.067-.642.116-.572,1.735-.941s1.789-.3,2.115-.041a3.45,3.45,0,0,1,.4,2.612,1.79,1.79,0,0,1-1.562,1.875c-1.425.251-1.758-.456-2.162-1.444A6.148,6.148,0,0,1,388.146,192.316Zm-9.433,1.054c.219-.353,2.411-.652,4.059-.855s2.2-.272,2.479.309a6.106,6.106,0,0,1,.206,2.118c-.042,1.066-.251,2-2.82,2.463-1.813.327-2.691-.177-3.439-1.532A3,3,0,0,1,378.713,193.37Zm-5.5,1.637,3.617-.74,1.222-1.785s-1.388.2-3.684.708a7.038,7.038,0,0,0-2.178,1.026A3.552,3.552,0,0,1,373.214,195.006Z" transform="translate(-341.53 -139.822)" fill="#21295b"/>
        <g id="Group_42" data-name="Group 42" transform="translate(0 12.899)">
          <path id="Path_75" data-name="Path 75" d="M350.531,220.146s-3.13-19.826-3.16-21.681c-.179-10.956,5.374-25.675,6.506-30.479s1.884-4.044,2.111-4.675,8.184-1.849,8.184-1.849a21.218,21.218,0,0,1,2.638-.942c.5-.049,2.6-.677,2.6-.677l-1.222,2.195s-4.96,3.773-5.279,4.275a10.845,10.845,0,0,0-3.547,8.126c-.2,9.8-.173,20.422-.173,20.422-.073-.358,4.694,20.3,4.694,20.3Z" transform="translate(-347.368 -159.843)" fill="#fec4ad"/>
          <path id="Path_76" data-name="Path 76" d="M359.4,240.889c-3.367-9.555-11.068-35.216-11.068-35.216s11.451-2.883,14.681-6.383c0,0,3.864,11.473,5.469,16.23,1.776,5.263,4.45,11.081-.058,13.553C364.067,231.461,361.012,245.478,359.4,240.889Z" transform="translate(-347.142 -150.567)" fill="#42b2fc"/>
        </g>
      </g>
      <g id="Group_47" data-name="Group 47" transform="translate(495.892 120.954)">
        <g id="Group_44" data-name="Group 44" transform="translate(7.601 85.251)">
          <path id="Path_77" data-name="Path 77" d="M543.174,246.79c2.973,2.767,5.075,1.84,9.539,17.122,2.852,9.764,13.255,59,13.255,59l-6.214,2.7c-8.4-23.537-8.392-23.514-18.21-42.618a84.952,84.952,0,0,1-6.751-18.393l-18.15-1.089c-11.347-4.663-7.458-21.225-7.458-21.225S540.2,244.023,543.174,246.79Z" transform="translate(-470.669 -221.663)" fill="url(#linear-gradient-2)"/>
          <path id="Path_78" data-name="Path 78" d="M481.631,236.078l16.376-10.488L513.849,237.9l19.732,6.373-.106.061c7.936,2.753,17,6.77,19.781,9.358,2.973,2.767,8.833,6.695,4.107,21.9-3.019,9.713-16.179,58.918-16.179,58.918l-6.67-1.187s2.369-28.511,4.743-49.84c1.15-10.34,1.54-13.224,1.54-13.224s-44.057,4.8-58.251-2.693C472.61,262.311,481.631,244.027,481.631,236.078Z" transform="translate(-477.879 -225.59)" fill="url(#linear-gradient-3)"/>
          <path id="Path_79" data-name="Path 79" d="M531.129,310.881s-.194,1.791-3.063,2.6a4.883,4.883,0,0,1-4.822-1.562l-.636,5.851,9.164,6.46h7.612l-4.118-4.57Z" transform="translate(-467.361 -205.533)" fill="#133a50"/>
          <path id="Path_80" data-name="Path 80" d="M555.419,304.318a3.145,3.145,0,0,1-1.136,4.151,4.881,4.881,0,0,1-5.069-.02l1.176,5.766,21.64-6.769Z" transform="translate(-461.104 -207.076)" fill="#133a50"/>
        </g>
        <g id="Group_46" data-name="Group 46">
          <path id="Path_81" data-name="Path 81" d="M535.811,191.373c-.035.311-3.605-4.291-3.605-4.291l-.831-3.767s-1.458-1.949-2.584-3.126-2.127-6.223-2.127-6.223l1.465-.883a18.3,18.3,0,0,0,1.156,2.754,2.617,2.617,0,0,0,1.421.581,27.473,27.473,0,0,0,.044-3.51,30.731,30.731,0,0,0-1.339-5.924l1.221-.6A26.887,26.887,0,0,1,531.8,169.1c.258.86.709,2.63.709,2.63a29.635,29.635,0,0,0-.374-4.013c-.284-1.159-.5-2.664-.5-2.664l1.28-.329a24.524,24.524,0,0,1,.85,3.237c.2,1.327.661,3.571.661,3.571a38.821,38.821,0,0,0,.049-4.083,13.319,13.319,0,0,1-.133-1.436l1.359.035a10.352,10.352,0,0,1,.48,3.077,14.331,14.331,0,0,0,.137,2.446,15.454,15.454,0,0,0,.379-3.335,2.838,2.838,0,0,1-.051-1.131l1.047.178s.594,4.156.784,6.666-.115,5.694-.138,7.469-.068,3.162-.068,3.162Z" transform="translate(-458.807 -154.652)" fill="#fec4ad"/>
          <path id="Path_82" data-name="Path 82" d="M513.614,192.458a164.852,164.852,0,0,0,16.89,12.065s3.142-7.88,4.639-13.463c1.789-6.666,2.313-9.738,2.313-9.738l6.371-.521s-2.018,17.049-4.526,28.614c-2.437,11.242-5.5,9.233-8.194,8.682s-28.051-14.176-28.051-14.176l2.715-14.479S507.575,187.5,513.614,192.458Z" transform="translate(-464.358 -150.872)" fill="#fec4ad"/>
          <path id="Path_83" data-name="Path 83" d="M489.911,157.214c1.354-.773,7.9-1.312,12,1.214,7.843,4.829,4.078,18.062,3.588,21.109s2.322,8.539,2.276,12.179-.914,4.958-3.631,8.482a6.747,6.747,0,0,0-1.013,2.814,25.971,25.971,0,0,1-3.65-10.755c-.642-6.261-1.973-4.8-5.1-11.677s-3.269-17.231-3.269-17.231Z" transform="translate(-467.449 -156.57)" fill="#471a16"/>
          <path id="Path_84" data-name="Path 84" d="M499.557,161.585l-6.523-4.486a9.537,9.537,0,0,0-8.808,4.212c-3.235,4.957-4.363,12.134-5.09,17.527s-2.627,15.53-2.5,19.551,5.016,4.57,5.016,4.57l16.387-7.09a48.639,48.639,0,0,1-.152-17.8A88.323,88.323,0,0,0,499.557,161.585Z" transform="translate(-470.572 -156.455)" fill="#471a16"/>
          <path id="Path_85" data-name="Path 85" d="M502.849,162.343c.341,2.039,1.921,8.03,2.079,11.872s-.3,10.173-2.845,11.921-7.325.352-10.823-1.1-4.343-3.9-5.026-6.156-.442-8.245.357-12.537a7.643,7.643,0,0,1,6.681-6.613C496.431,159.144,502.849,162.343,502.849,162.343Z" transform="translate(-468.408 -155.843)" fill="#fec4ad"/>
          <path id="Path_86" data-name="Path 86" d="M489.584,173.409s.894,9.55-1.114,14.045c-1.386,3.1-7,4.417-7,4.417a31.663,31.663,0,0,0,5.424,16.883c5.635,8.293,23.256,11.361,23.256,11.361a76.89,76.89,0,0,0,5.261-14.681c1.818-7.759-3.1-13.754-3.1-13.754s-4.764-1.559-7.05-2.42c-5.552-2.091-4.9-10.916-4.9-10.916Z" transform="translate(-469.435 -152.61)" fill="#fec4ad"/>
          <path id="Path_87" data-name="Path 87" d="M502.046,192.408s-11.392-2.894-14.815-5.116l-11.3,6.714s-6.637,6.334,4.689,22.978c0,0,4.3,15.16-2.679,41.871,0,0,1.886,6.88,12.468,3.216,9.108-3.152,9.313-5.616,17.292-7.641,11.781-2.988,14.88-4.826,14.88-4.826-6.188-9.3-5.088-23.821-5.088-23.821s7.016-6.716,4.008-13.578c-4.34-9.907-5.8-23.926-5.8-23.926l-6.046-1.533a45.57,45.57,0,0,1-4.831,5.144A2.587,2.587,0,0,1,502.046,192.408Z" transform="translate(-471.19 -149.474)" fill="#42b2fc"/>
          <path id="Path_88" data-name="Path 88" d="M501.671,186.243s-1.387,5.162-4.964,6.283c0,0,1.4,7.071,4.748,5.842,4.7-1.724,2.869-11.5,2.869-11.5Z" transform="translate(-465.851 -149.592)" fill="#fff"/>
          <path id="Path_89" data-name="Path 89" d="M483.61,186.788s2.232,10.8,8.2,11.675,7.978-5.689,7.978-5.689-12.649-3.71-13.886-7.58Z" transform="translate(-468.931 -149.839)" fill="#fff"/>
          <path id="Path_90" data-name="Path 90" d="M495.473,159.667c-1.1.072-1.912,5.277-2.023,8.18s-4.459,5.2-2.541,11.585,1.66,12.558,4.232,19.559-.631,9.566-2.021,11.977c0,0-5.506-6.031-7.369-9.054a7.267,7.267,0,0,0-7.872-3.528s8.405-16.325,8.121-20.727-1.061-11.124,2.443-15.142S495.473,159.667,495.473,159.667Z" transform="translate(-470.279 -155.879)" fill="#471a16"/>
          <path id="Path_91" data-name="Path 91" d="M489.521,170.613s-2.337-2.559-3.88-2.169-1.64,2.7-.466,4.6,5.524,2.964,5.524,2.964Z" transform="translate(-468.75 -153.787)" fill="#fec4ad"/>
          <path id="Path_92" data-name="Path 92" d="M493.644,167.991c2.12.191,3.324-.116,6.633-.48,4.238-.466,6.024.621,6.024.621l-1.6-7.045s-4.947-2.749-8.451-2.725c-4.46.03-8.363,1.737-6.154,3.178C492.434,163.067,493.644,167.991,493.644,167.991Z" transform="translate(-467.556 -156.149)" fill="#471a16"/>
          <g id="Group_45" data-name="Group 45" transform="translate(0 43.991)">
            <path id="Path_93" data-name="Path 93" d="M486.06,200.622c-.757,8.84-3.357,34.03-3.357,34.03,8.043,7.038,19.43,18.74,19.43,18.74s-3.241,6.391-4.627,5.306c-11.083-8.663-23.751-13.792-24.656-19.823-1.486-9.906-2-34.832,1.65-42.939C477.313,189.689,486.862,191.245,486.06,200.622Z" transform="translate(-471.726 -192.186)" fill="#fec4ad"/>
            <path id="Path_94" data-name="Path 94" d="M502.239,242.66c3.368,1.265,5.488,2.5,5.286,3.761-.138.866-3.013-.716-4.733-.661a9.551,9.551,0,0,0,4.093,4.017c2.224,1.1,3.47,2.616,2.279,3.9s-3.387,3.089-4.82,2.43-6.518-4.211-8.432-5.194-2.68-3.391-3.666-4.051,1.8-5.725,1.8-5.725c.53.147,3.307.74,3.307.74a17.669,17.669,0,0,0,2.753.23A6.72,6.72,0,0,1,502.239,242.66Z" transform="translate(-466.95 -180.674)" fill="#fec4ad"/>
          </g>
        </g>
      </g>
      <line id="Line_18" data-name="Line 18" x2="752.84" transform="translate(0 395.767)" fill="none" stroke="#fc5546" stroke-miterlimit="10" stroke-width="1"/>
    </g>
  </g>
</svg>
